<svg width="56" height="56" viewBox="0 0 56 56" fill="none" xmlns="http://www.w3.org/2000/svg">
<rect width="56" height="56" rx="16" fill="#D1E1F9"/>
<path fill-rule="evenodd" clip-rule="evenodd" d="M28 40.8002C35.0693 40.8002 40.8 35.0694 40.8 28.0002C40.8 20.931 35.0693 15.2002 28 15.2002C20.9308 15.2002 15.2 20.931 15.2 28.0002C15.2 35.0694 20.9308 40.8002 28 40.8002ZM27.2875 23.4689C26.7966 23.1416 26.1653 23.1111 25.645 23.3895C25.1248 23.6679 24.8 24.2101 24.8 24.8002V31.2002C24.8 31.7903 25.1248 32.3324 25.645 32.6109C26.1653 32.8893 26.7966 32.8588 27.2875 32.5315L32.0875 29.3315C32.5326 29.0347 32.8 28.5352 32.8 28.0002C32.8 27.4652 32.5326 26.9657 32.0875 26.6689L27.2875 23.4689Z" fill="#1B68E0"/>
</svg>
