<svg width="50" height="50" viewBox="0 0 50 50" fill="none" xmlns="http://www.w3.org/2000/svg">
<path d="M25 18.4919C21.416 18.4919 18.4912 21.4167 18.4912 25.0007C18.4912 28.5847 21.416 31.5095 25 31.5095C28.584 31.5095 31.5088 28.5847 31.5088 25.0007C31.5088 21.4167 28.584 18.4919 25 18.4919ZM44.5215 25.0007C44.5215 22.3054 44.5459 19.6345 44.3946 16.9441C44.2432 13.8191 43.5303 11.0456 41.2451 8.76049C38.9551 6.47045 36.1866 5.76244 33.0616 5.61107C30.3662 5.4597 27.6953 5.48412 25.0049 5.48412C22.3096 5.48412 19.6387 5.4597 16.9483 5.61107C13.8233 5.76244 11.0498 6.47533 8.76468 8.76049C6.47464 11.0505 5.76663 13.8191 5.61527 16.9441C5.4639 19.6394 5.48831 22.3103 5.48831 25.0007C5.48831 27.6911 5.4639 30.3669 5.61527 33.0574C5.76663 36.1824 6.47953 38.9558 8.76468 41.241C11.0547 43.531 13.8233 44.239 16.9483 44.3904C19.6436 44.5417 22.3145 44.5173 25.0049 44.5173C27.7002 44.5173 30.3711 44.5417 33.0616 44.3904C36.1866 44.239 38.96 43.5261 41.2451 41.241C43.5352 38.9509 44.2432 36.1824 44.3946 33.0574C44.5508 30.3669 44.5215 27.696 44.5215 25.0007ZM25 35.0154C19.458 35.0154 14.9854 30.5427 14.9854 25.0007C14.9854 19.4587 19.458 14.9861 25 14.9861C30.542 14.9861 35.0147 19.4587 35.0147 25.0007C35.0147 30.5427 30.542 35.0154 25 35.0154ZM35.4248 16.9148C34.1309 16.9148 33.086 15.8699 33.086 14.5759C33.086 13.282 34.1309 12.237 35.4248 12.237C36.7188 12.237 37.7637 13.282 37.7637 14.5759C37.7641 14.8832 37.7039 15.1875 37.5865 15.4714C37.469 15.7554 37.2968 16.0133 37.0795 16.2306C36.8623 16.4479 36.6043 16.6201 36.3203 16.7375C36.0364 16.8549 35.7321 16.9152 35.4248 16.9148Z" fill="#55C4E2"/>
</svg>
