<svg width="50" height="41" viewBox="0 0 50 41" fill="none" xmlns="http://www.w3.org/2000/svg">
<path d="M21.1389 23.0926C24.0382 25.4619 27.5462 27.2911 31.4167 28.4518L36.6528 25.0953C36.808 25.0092 36.9921 24.9631 37.1805 24.9631C37.369 24.9631 37.5531 25.0092 37.7083 25.0953L47.4306 30.1412C47.7996 30.32 48.1121 30.5654 48.3432 30.8581C48.5743 31.1509 48.7178 31.4829 48.7622 31.828C48.8067 32.173 48.7509 32.5217 48.5993 32.8465C48.4478 33.1712 48.2045 33.4631 47.8889 33.6991L43.3333 37.3241C42.6809 37.8434 41.8791 38.2244 40.9994 38.4333C40.1196 38.6422 39.1894 38.6724 38.2917 38.5212C29.3364 37.0313 21.0821 33.5419 14.4722 28.4518C8.009 23.311 3.53649 16.7699 1.59722 9.62191C1.40564 8.90994 1.44563 8.17017 1.71329 7.4743C1.98096 6.77843 2.46724 6.15005 3.12499 5.65008L7.84722 1.98032C8.13944 1.73842 8.49581 1.5529 8.88964 1.43767C9.28348 1.32243 9.70457 1.28046 10.1214 1.3149C10.5382 1.34934 10.94 1.45929 11.2966 1.63653C11.6532 1.81377 11.9554 2.0537 12.1805 2.33835L18.6528 10.0694C18.7644 10.1908 18.8247 10.3379 18.8247 10.489C18.8247 10.6401 18.7644 10.7872 18.6528 10.9086L14.3889 15.037C15.8689 18.0925 18.1746 20.8442 21.1389 23.0926Z" fill="#55C4E2"/>
</svg>
