<svg width="417" height="450" viewBox="0 0 417 450" fill="none" xmlns="http://www.w3.org/2000/svg">
<g clip-path="url(#clip0_16_884)">
<path opacity="0.7" d="M26.8898 141.105C26.8898 141.105 -0.850843 212.746 38.1333 284.883C77.1175 357.021 157.414 395.129 221.681 427.716C285.948 460.302 352.683 444.432 384.394 391.06C416.105 337.688 372.613 299.589 372.553 223.482C372.494 147.374 383.946 127.225 342.703 62.9282C301.46 -1.36878 200.358 -15.6072 123.902 32.0832C47.4465 79.7736 26.8898 141.105 26.8898 141.105Z" fill="#DDDDDD"/>
<path d="M27.9544 404.353H238.089C238.935 403 239.79 401.647 240.666 400.323C263.272 365.916 299.47 341.379 339.002 329.867C356.713 324.713 375.896 321.648 390.125 309.907C404.771 297.838 411.498 278.575 414.403 259.819C417.935 237.113 416.025 211.651 400.612 194.607C382.513 174.597 352.186 172.349 328.604 159.234C288.018 136.648 272.287 85.2162 235.362 57.0378C212.03 39.2372 180.548 32.3419 152.33 36.2423C112.341 41.7844 74.7195 68.5798 63.4262 107.882C60.1797 119.329 59.0203 131.267 60.0034 143.125C61.8044 166.558 66.849 190.288 62.0929 213.303C56.8493 238.665 40.3522 260.068 30.4917 284.037C18.2134 313.887 16.5617 347.32 21.7655 379.14C23.1584 387.695 25.2278 396.126 27.9544 404.353Z" fill="white"/>
<path d="M1.07947 404.353H417.308" stroke="#263238" stroke-linecap="round" stroke-linejoin="round"/>
<path d="M236.905 87.674V72.0524L225.204 71.0574C224.52 68.6143 223.551 66.26 222.318 64.0427L229.87 55.0877L218.826 44.0431L209.871 51.5952C207.672 50.3575 205.334 49.3855 202.906 48.6998L201.911 36.9985H186.16L185.165 48.6998C182.737 49.3855 180.399 50.3575 178.2 51.5952L169.245 44.0431L158.2 55.0877L165.752 64.0427C164.519 66.26 163.551 68.6143 162.867 71.0574L151.166 72.0524V87.674L162.867 88.669C163.554 91.095 164.523 93.4324 165.752 95.634L158.2 104.589L169.245 115.634L178.2 108.081C180.399 109.319 182.737 110.291 185.165 110.977L186.16 122.678H201.781L202.776 110.977C205.221 110.292 207.575 109.32 209.791 108.081L218.746 115.634L229.791 104.589L222.239 95.634C223.468 93.4324 224.436 91.095 225.124 88.669L236.905 87.674ZM194.02 98.012C190.431 98.012 186.922 96.9476 183.937 94.9534C180.953 92.9592 178.627 90.1247 177.253 86.8085C175.879 83.4922 175.52 79.8431 176.22 76.3225C176.92 72.802 178.649 69.5682 181.187 67.03C183.725 64.4919 186.959 62.7634 190.48 62.0631C194 61.3628 197.649 61.7222 200.966 63.0959C204.282 64.4695 207.116 66.7957 209.11 69.7803C211.105 72.7648 212.169 76.2737 212.169 79.8632C212.168 82.2495 211.696 84.6122 210.781 86.8161C209.866 89.02 208.526 91.022 206.836 92.7075C205.147 94.3931 203.142 95.7291 200.936 96.6393C198.73 97.5495 196.367 98.0159 193.98 98.012H194.02Z" stroke="#263238" stroke-linecap="round" stroke-linejoin="round"/>
<path d="M404.752 240.357V232.874L399.14 232.387C398.809 231.216 398.345 230.088 397.757 229.024L401.379 224.715L396.105 219.422L391.807 223.044C390.744 222.451 389.615 221.987 388.444 221.661L387.956 216.049H380.464L379.986 221.661C378.813 221.985 377.684 222.449 376.623 223.044L372.315 219.422L367.021 224.715L370.643 229.024C370.047 230.086 369.579 231.214 369.25 232.387L363.638 232.874V240.357L369.25 240.844C369.579 242.017 370.047 243.145 370.643 244.207L366.991 248.476L372.285 253.769L376.593 250.148C377.654 250.742 378.784 251.206 379.956 251.531L380.434 257.142H387.926L388.414 251.531C389.586 251.205 390.715 250.74 391.777 250.148L396.075 253.769L401.379 248.476L397.757 244.168C398.345 243.103 398.809 241.975 399.14 240.804L404.752 240.357ZM384.185 245.332C382.463 245.334 380.778 244.825 379.345 243.869C377.912 242.914 376.795 241.555 376.134 239.964C375.474 238.373 375.3 236.623 375.635 234.933C375.97 233.244 376.798 231.691 378.015 230.473C379.232 229.254 380.784 228.424 382.473 228.087C384.162 227.75 385.913 227.922 387.504 228.581C389.096 229.24 390.456 230.356 391.413 231.787C392.37 233.219 392.881 234.903 392.881 236.625C392.88 237.769 392.653 238.901 392.215 239.956C391.776 241.012 391.134 241.971 390.324 242.779C389.515 243.586 388.554 244.227 387.498 244.663C386.441 245.099 385.308 245.323 384.165 245.322L384.185 245.332Z" stroke="#263238" stroke-linecap="round" stroke-linejoin="round"/>
<path d="M399.09 104.002C399.885 100.563 399.774 96.9771 398.771 93.5935C397.767 90.2099 395.903 87.1442 393.362 84.6951C390.821 82.2459 387.688 80.497 384.27 79.6188C380.852 78.7406 377.264 78.7631 373.857 79.684C371.781 76.0032 368.571 73.0918 364.706 71.3837C360.841 69.6756 356.528 69.2623 352.409 70.2053C348.289 71.1484 344.585 73.3974 341.848 76.6171C339.111 79.8367 337.488 83.8546 337.221 88.0719C335.055 87.6577 332.827 87.6956 330.677 88.1834C328.526 88.6711 326.5 89.5981 324.725 90.9061C322.949 92.2141 321.464 93.875 320.361 95.7844C319.258 97.6938 318.562 99.8106 318.316 102.002C316.098 102.235 314.047 103.288 312.564 104.953C311.081 106.619 310.273 108.778 310.298 111.008C310.323 113.238 311.179 115.378 312.699 117.01C314.218 118.642 316.292 119.649 318.515 119.832H393.419C395.253 119.819 397.039 119.242 398.534 118.181C400.03 117.12 401.164 115.625 401.783 113.898C402.402 112.171 402.475 110.296 401.994 108.526C401.512 106.756 400.498 105.177 399.09 104.002Z" stroke="#263238" stroke-linecap="round" stroke-linejoin="round"/>
<path d="M357.927 112.987V133.633" stroke="#263238" stroke-linecap="round" stroke-linejoin="round"/>
<path d="M357.927 100.609V108.857" stroke="#263238" stroke-linecap="round" stroke-linejoin="round"/>
<path d="M357.927 92.8877V97.3055" stroke="#263238" stroke-linecap="round" stroke-linejoin="round"/>
<path d="M354.026 131.225L357.927 136.051L361.827 131.225" stroke="#263238" stroke-linecap="round" stroke-linejoin="round"/>
<path d="M170.877 346.136C171.669 342.696 171.557 339.11 170.551 335.727C169.546 332.344 167.682 329.279 165.14 326.83C162.598 324.381 159.465 322.633 156.047 321.754C152.628 320.876 149.041 320.898 145.633 321.818C143.56 318.134 140.35 315.22 136.484 313.511C132.618 311.801 128.303 311.388 124.183 312.333C120.063 313.278 116.359 315.53 113.624 318.753C110.888 321.976 109.269 325.997 109.007 330.216C108.023 330.027 107.024 329.931 106.022 329.927C102.086 329.924 98.2867 331.371 95.35 333.992C92.4133 336.613 90.5451 340.224 90.1023 344.136C87.8845 344.368 85.8331 345.419 84.3495 347.084C82.8658 348.749 82.0567 350.907 82.0803 353.137C82.104 355.367 82.9587 357.508 84.4773 359.14C85.9959 360.773 88.0691 361.781 90.2914 361.966H165.265C167.096 361.947 168.878 361.366 170.369 360.302C171.861 359.239 172.99 357.743 173.605 356.018C174.22 354.292 174.291 352.42 173.808 350.653C173.326 348.886 172.313 347.309 170.906 346.136H170.877Z" stroke="#263238" stroke-linecap="round" stroke-linejoin="round"/>
<path d="M129.684 358.076V337.439" stroke="#263238" stroke-linecap="round" stroke-linejoin="round"/>
<path d="M129.684 370.463V362.205" stroke="#263238" stroke-linecap="round" stroke-linejoin="round"/>
<path d="M129.684 378.184V373.767" stroke="#263238" stroke-linecap="round" stroke-linejoin="round"/>
<path d="M133.584 339.847L129.683 335.021L125.783 339.847" stroke="#263238" stroke-linecap="round" stroke-linejoin="round"/>
<path d="M12.512 84.2017H262.705C263.824 84.2017 264.897 84.6461 265.688 85.4373C266.479 86.2285 266.924 87.3016 266.924 88.4205V100.221H8.29324V88.4205C8.29324 87.3016 8.73772 86.2285 9.5289 85.4373C10.3201 84.6461 11.3931 84.2017 12.512 84.2017Z" fill="#1B68E0" stroke="#263238" stroke-linecap="round" stroke-linejoin="round"/>
<path d="M281.013 103.176H19.6163V287.122H281.013V103.176Z" fill="white" stroke="#263238" stroke-linecap="round" stroke-linejoin="round"/>
<path d="M285.013 92.2017C285.013 92.9889 284.78 93.7583 284.342 94.4129C283.905 95.0674 283.283 95.5775 282.556 95.8787C281.829 96.18 281.029 96.2588 280.257 96.1052C279.485 95.9516 278.775 95.5726 278.219 95.016C277.662 94.4594 277.283 93.7502 277.13 92.9781C276.976 92.2061 277.055 91.4058 277.356 90.6786C277.657 89.9513 278.167 89.3298 278.822 88.8924C279.476 88.4551 280.246 88.2217 281.033 88.2217C282.089 88.2217 283.101 88.641 283.847 89.3874C284.594 90.1338 285.013 91.1461 285.013 92.2017Z" fill="white" stroke="#263238" stroke-linecap="round" stroke-linejoin="round"/>
<path d="M270.924 92.2017C270.924 92.9889 270.69 93.7583 270.253 94.4129C269.816 95.0674 269.194 95.5775 268.467 95.8787C267.74 96.18 266.939 96.2588 266.167 96.1052C265.395 95.9516 264.686 95.5726 264.13 95.016C263.573 94.4594 263.194 93.7502 263.04 92.9781C262.887 92.2061 262.966 91.4058 263.267 90.6786C263.568 89.9513 264.078 89.3298 264.733 88.8924C265.387 88.4551 266.157 88.2217 266.944 88.2217C267.999 88.2217 269.012 88.641 269.758 89.3874C270.505 90.1338 270.924 91.1461 270.924 92.2017Z" fill="white" stroke="#263238" stroke-linecap="round" stroke-linejoin="round"/>
<path d="M256.805 92.2017C256.805 92.9889 256.571 93.7583 256.134 94.4129C255.697 95.0674 255.075 95.5775 254.348 95.8787C253.621 96.18 252.82 96.2588 252.048 96.1052C251.276 95.9516 250.567 95.5726 250.01 95.016C249.454 94.4594 249.075 93.7502 248.921 92.9781C248.768 92.2061 248.846 91.4058 249.148 90.6786C249.449 89.9513 249.959 89.3298 250.614 88.8924C251.268 88.4551 252.038 88.2217 252.825 88.2217C253.88 88.2217 254.893 88.641 255.639 89.3874C256.385 90.1338 256.805 91.1461 256.805 92.2017Z" fill="white" stroke="#263238" stroke-linecap="round" stroke-linejoin="round"/>
<path d="M273.093 111.067H262.745" stroke="#263238" stroke-width="2" stroke-linecap="round" stroke-linejoin="round"/>
<path d="M273.093 115.266H262.745" stroke="#263238" stroke-width="2" stroke-linecap="round" stroke-linejoin="round"/>
<path d="M273.093 119.464H262.745" stroke="#263238" stroke-width="2" stroke-linecap="round" stroke-linejoin="round"/>
<path d="M37.7154 219.602H116.052" stroke="#263238" stroke-width="2" stroke-linecap="round" stroke-linejoin="round"/>
<path d="M37.7154 225.78H116.052" stroke="#263238" stroke-width="2" stroke-linecap="round" stroke-linejoin="round"/>
<path d="M37.7154 232.069H99.4851" stroke="#263238" stroke-width="2" stroke-linecap="round" stroke-linejoin="round"/>
<path d="M203.831 105.246V105.744" stroke="#263238" stroke-linecap="round" stroke-linejoin="round"/>
<path d="M203.831 108.729V282.088" stroke="#263238" stroke-linecap="round" stroke-linejoin="round" stroke-dasharray="1 3"/>
<path d="M203.831 283.58V284.078" stroke="#263238" stroke-linecap="round" stroke-linejoin="round"/>
<path d="M22.7606 245.87H23.2581" stroke="#263238" stroke-linecap="round" stroke-linejoin="round"/>
<path d="M26.2331 245.87H275.023" stroke="#263238" stroke-linecap="round" stroke-linejoin="round" stroke-dasharray="1 2.99"/>
<path d="M276.516 245.87H277.013" stroke="#263238" stroke-linecap="round" stroke-linejoin="round"/>
<path d="M205.552 244.148H202.12V247.581H205.552V244.148Z" fill="white" stroke="#263238" stroke-linecap="round" stroke-linejoin="round"/>
<path d="M190.13 212.895H144.3" stroke="#263238" stroke-linecap="round" stroke-linejoin="round"/>
<path d="M191.015 234.089C191.015 234.089 191.015 212.786 167.215 212.786C143.414 212.786 143.375 234.089 143.375 234.089" stroke="#263238" stroke-linecap="round" stroke-linejoin="round"/>
<path d="M191.015 236.098C192.125 236.098 193.025 235.199 193.025 234.089C193.025 232.978 192.125 232.079 191.015 232.079C189.905 232.079 189.005 232.978 189.005 234.089C189.005 235.199 189.905 236.098 191.015 236.098Z" fill="#1B68E0" stroke="#263238" stroke-linecap="round" stroke-linejoin="round"/>
<path d="M141.385 234.089C141.385 233.695 141.501 233.31 141.72 232.983C141.939 232.656 142.249 232.401 142.613 232.25C142.977 232.099 143.377 232.06 143.763 232.137C144.149 232.214 144.503 232.403 144.782 232.682C145.06 232.96 145.25 233.314 145.326 233.7C145.403 234.086 145.364 234.487 145.213 234.85C145.063 235.214 144.807 235.525 144.48 235.743C144.153 235.962 143.768 236.079 143.375 236.079C142.847 236.079 142.341 235.869 141.967 235.496C141.594 235.123 141.385 234.616 141.385 234.089Z" fill="#1B68E0" stroke="#263238" stroke-linecap="round" stroke-linejoin="round"/>
<path d="M189.254 214.547H192.776V211.025H189.254V214.547Z" fill="#1B68E0" stroke="#263238" stroke-linecap="round" stroke-linejoin="round"/>
<path d="M165.454 214.547H168.976V211.025H165.454V214.547Z" fill="#1B68E0" stroke="#263238" stroke-linecap="round" stroke-linejoin="round"/>
<path d="M141.653 214.547H145.176V211.025H141.653V214.547Z" fill="#1B68E0" stroke="#263238" stroke-linecap="round" stroke-linejoin="round"/>
<path d="M66.1924 148.847V141.802L60.9288 141.354C60.6163 140.253 60.179 139.192 59.6254 138.19L63.0283 134.151L58.0533 129.176L54.0036 132.578C53.0055 132.018 51.943 131.58 50.8395 131.275L50.3818 126.001H43.3571L42.8994 131.275C41.7985 131.579 40.7392 132.016 39.7452 132.578L35.6956 129.176L30.7206 134.151L34.1235 138.19C33.5657 139.19 33.1281 140.252 32.82 141.354L27.5465 141.802V148.847L32.82 149.294C33.1299 150.396 33.5673 151.458 34.1235 152.459L30.7206 156.498L35.6956 161.473L39.7452 158.07C40.7329 158.631 41.7855 159.069 42.8795 159.374L43.3372 164.647H50.3718L50.8295 159.374C51.9297 159.068 52.9888 158.631 53.9837 158.07L58.0334 161.473L63.0084 156.498L59.6055 152.459C60.1574 151.456 60.5947 150.395 60.9089 149.294L66.1924 148.847ZM46.8595 153.503C45.2419 153.503 43.6605 153.024 42.3155 152.125C40.9705 151.226 39.9222 149.949 39.3032 148.454C38.6841 146.96 38.5221 145.315 38.8377 143.729C39.1533 142.142 39.9323 140.685 41.0761 139.541C42.22 138.397 43.6773 137.618 45.2639 137.303C46.8504 136.987 48.4949 137.149 49.9894 137.768C51.4839 138.387 52.7613 139.435 53.66 140.78C54.5587 142.125 55.0384 143.707 55.0384 145.324C55.0384 147.494 54.1767 149.574 52.6429 151.108C51.109 152.642 49.0287 153.503 46.8595 153.503Z" fill="#1B68E0" stroke="#263238" stroke-linecap="round" stroke-linejoin="round"/>
<path d="M90.1122 164.627V159.812L86.5003 159.493C86.2926 158.741 85.9953 158.016 85.6148 157.334L87.9431 154.568L84.5302 151.165L81.7641 153.493C81.0808 153.114 80.3564 152.813 79.605 152.598L79.2965 148.976H74.4807L74.1623 152.588C73.4109 152.803 72.6865 153.104 72.0032 153.483L69.2371 151.155L65.8242 154.558L68.1625 157.324C67.7747 158.003 67.4738 158.729 67.267 159.483L63.6551 159.802V164.617L67.267 164.926C67.472 165.681 67.7729 166.407 68.1625 167.085L65.8242 169.871L69.2371 173.274L72.0032 170.946C72.6865 171.325 73.4109 171.626 74.1623 171.841L74.4807 175.443H79.2965L79.605 171.841C80.3564 171.626 81.0808 171.325 81.7641 170.946L84.5302 173.274L87.9431 169.871L85.6645 167.095C86.0468 166.414 86.3442 165.689 86.5501 164.936L90.1122 164.627ZM76.8886 167.811C75.7798 167.813 74.6954 167.486 73.7727 166.872C72.8499 166.257 72.1304 165.382 71.7051 164.358C71.2799 163.334 71.1681 162.207 71.384 161.119C71.5998 160.032 72.1335 159.033 72.9176 158.248C73.7016 157.464 74.7007 156.931 75.7883 156.715C76.8758 156.499 78.003 156.611 79.027 157.036C80.051 157.461 80.9258 158.181 81.5406 159.104C82.1554 160.026 82.4825 161.111 82.4805 162.22C82.4779 163.702 81.8879 165.123 80.8398 166.171C79.7917 167.219 78.3709 167.809 76.8886 167.811Z" fill="#1B68E0" stroke="#263238" stroke-linecap="round" stroke-linejoin="round"/>
<path d="M213.661 257.571H252.198" stroke="#263238" stroke-width="2" stroke-linecap="round" stroke-linejoin="round"/>
<path d="M213.661 263.75H252.198" stroke="#263238" stroke-width="2" stroke-linecap="round" stroke-linejoin="round"/>
<path d="M213.661 270.038H235.631" stroke="#263238" stroke-width="2" stroke-linecap="round" stroke-linejoin="round"/>
<path d="M162.887 272.605H142.599C141.279 272.605 140.014 272.081 139.081 271.148C138.148 270.215 137.624 268.95 137.624 267.63C137.624 266.311 138.148 265.045 139.081 264.112C140.014 263.179 141.279 262.655 142.599 262.655H162.887C164.206 262.655 165.471 263.179 166.404 264.112C167.337 265.045 167.862 266.311 167.862 267.63C167.862 268.95 167.337 270.215 166.404 271.148C165.471 272.081 164.206 272.605 162.887 272.605Z" fill="#1B68E0" stroke="#263238" stroke-linecap="round" stroke-linejoin="round"/>
<path d="M200.697 272.605H180.409C179.089 272.605 177.824 272.081 176.891 271.148C175.958 270.215 175.434 268.95 175.434 267.63C175.434 266.311 175.958 265.045 176.891 264.112C177.824 263.179 179.089 262.655 180.409 262.655H200.697C202.016 262.655 203.282 263.179 204.215 264.112C205.148 265.045 205.672 266.311 205.672 267.63C205.672 268.95 205.148 270.215 204.215 271.148C203.282 272.081 202.016 272.605 200.697 272.605Z" fill="#1B68E0" stroke="#263238" stroke-linecap="round" stroke-linejoin="round"/>
<path d="M259.501 165.861H216.477V208.885H259.501V165.861Z" fill="white" stroke="#263238" stroke-linecap="round" stroke-linejoin="round"/>
<path d="M216.477 165.861L259.501 208.885" stroke="#263238" stroke-linecap="round" stroke-linejoin="round"/>
<path d="M259.501 165.861L216.477 208.885" stroke="#263238" stroke-linecap="round" stroke-linejoin="round"/>
<path d="M233.353 117.017V127.056L228.925 131.484H218.885V117.017H233.353Z" fill="white" stroke="#263238" stroke-linecap="round" stroke-linejoin="round"/>
<path d="M233.353 127.056L228.925 131.484V127.056H233.353Z" fill="white" stroke="#263238" stroke-linecap="round" stroke-linejoin="round"/>
<path d="M79.4955 194.657V204.696L75.0678 209.134H65.0282V194.657H79.4955Z" fill="white" stroke="#263238" stroke-linecap="round" stroke-linejoin="round"/>
<path d="M79.4955 204.696L75.0678 209.134V204.696H79.4955Z" fill="white" stroke="#263238" stroke-linecap="round" stroke-linejoin="round"/>
<path d="M24.8302 256.516V266.556L20.4024 270.983H10.3529V256.516H24.8302Z" fill="white" stroke="#263238" stroke-linecap="round" stroke-linejoin="round"/>
<path d="M24.8302 266.556L20.4024 270.983V266.556H24.8302Z" fill="white" stroke="#263238" stroke-linecap="round" stroke-linejoin="round"/>
<path d="M306.227 140.3H252.835V173.762H306.227V140.3Z" fill="#263238" stroke="#263238" stroke-linecap="round" stroke-linejoin="round"/>
<path d="M306.227 140.3H252.835V145.384H306.227V140.3Z" fill="#1B68E0" stroke="#263238" stroke-linecap="round" stroke-linejoin="round"/>
<path d="M258.277 149.673H271.929" stroke="white" stroke-linecap="round" stroke-linejoin="round"/>
<path d="M265.103 153.483H288.724" stroke="white" stroke-linecap="round" stroke-linejoin="round"/>
<path d="M262.088 157.036H269.043" stroke="white" stroke-linecap="round" stroke-linejoin="round"/>
<path d="M265.103 161.225H281.013" stroke="white" stroke-linecap="round" stroke-linejoin="round"/>
<path d="M258.277 165.025H271.929" stroke="white" stroke-linecap="round" stroke-linejoin="round"/>
<path d="M105.425 274.934H52.0335V308.395H105.425V274.934Z" fill="#263238" stroke="#263238" stroke-linecap="round" stroke-linejoin="round"/>
<path d="M105.425 274.934H52.0335V280.018H105.425V274.934Z" fill="#1B68E0" stroke="#263238" stroke-linecap="round" stroke-linejoin="round"/>
<path d="M57.4861 284.316H71.1276" stroke="white" stroke-linecap="round" stroke-linejoin="round"/>
<path d="M64.3019 288.117H87.9232" stroke="white" stroke-linecap="round" stroke-linejoin="round"/>
<path d="M61.287 291.669H68.2421" stroke="white" stroke-linecap="round" stroke-linejoin="round"/>
<path d="M64.3019 295.858H80.212" stroke="white" stroke-linecap="round" stroke-linejoin="round"/>
<path d="M57.4861 299.669H71.1276" stroke="white" stroke-linecap="round" stroke-linejoin="round"/>
<path d="M125.465 32.561H76.4111C75.8366 32.5637 75.2864 32.793 74.8802 33.1992C74.474 33.6055 74.2446 34.1557 74.242 34.7301V57.6152C74.2446 58.1887 74.4743 58.7379 74.8808 59.1425C75.2873 59.5472 75.8375 59.7743 76.4111 59.7743H98.4006L100.908 68.7293L103.425 59.7743H125.465C126.038 59.7743 126.588 59.5472 126.995 59.1425C127.401 58.7379 127.631 58.1887 127.634 57.6152V34.7301C127.631 34.1557 127.402 33.6055 126.996 33.1992C126.589 32.793 126.039 32.5637 125.465 32.561Z" fill="#1B68E0" stroke="#263238" stroke-linecap="round" stroke-linejoin="round"/>
<path d="M82.3811 39.1079H119.445" stroke="#263238" stroke-width="2" stroke-linecap="round" stroke-linejoin="round"/>
<path d="M82.3811 43.8047H119.445" stroke="#263238" stroke-width="2" stroke-linecap="round" stroke-linejoin="round"/>
<path d="M82.3811 48.501H119.445" stroke="#263238" stroke-width="2" stroke-linecap="round" stroke-linejoin="round"/>
<path d="M82.3811 53.1973H110.311" stroke="#263238" stroke-width="2" stroke-linecap="round" stroke-linejoin="round"/>
<path d="M205.93 195.323C200.667 195.771 193.99 189.483 193.99 189.483C193.862 189.615 193.706 189.715 193.532 189.776C193.358 189.837 193.173 189.857 192.99 189.834C192.808 189.811 192.633 189.745 192.48 189.643C192.328 189.54 192.201 189.404 192.11 189.244C191.254 188.01 187.543 185.154 187.334 182.687C187.125 180.219 191.503 176.219 191.503 176.219C188.13 177.135 187.772 175.155 187.772 175.155C187.772 175.155 193.453 170.468 195.443 170.339C196.219 170.289 199.602 172.239 202.876 174.866C206.299 177.622 212.726 187.323 212.726 187.323C212.726 187.323 234.467 203.114 239.96 207.154C247.213 212.487 255.81 221.95 255.81 221.95C255.81 221.95 284.665 234.964 292.625 242.118L281.859 267.61C281.859 267.61 255.621 250.028 253.004 245.571C250.387 241.113 247.76 243.79 245.134 240.874C242.507 237.959 239.989 234.626 239.989 234.626C235.317 232.37 231.078 229.312 227.462 225.591C221.333 219.293 215.93 209.671 212.537 203.88C210.781 200.71 208.553 197.825 205.93 195.323Z" fill="white" stroke="#263238" stroke-linecap="round" stroke-linejoin="round"/>
<path d="M207.532 191.602C207.532 191.602 199.702 189.701 199.025 184.537C198.726 183.228 198.153 181.997 197.344 180.925C197.344 180.925 190.04 180.567 190.498 177.592L200.249 176.727C203.798 178.09 206.787 180.606 208.736 183.871" fill="white"/>
<path d="M207.532 191.602C207.532 191.602 199.702 189.701 199.025 184.537C198.726 183.228 198.153 181.997 197.344 180.925C197.344 180.925 190.04 180.567 190.498 177.592L200.249 176.727C203.798 178.09 206.787 180.606 208.736 183.871" stroke="#263238" stroke-linecap="round" stroke-linejoin="round"/>
<path d="M193.98 189.483C194.328 188.838 194.444 188.093 194.309 187.373C194.309 187.373 196.458 186.975 196.219 185.075C196.219 185.075 199.403 184.687 197.344 180.926" stroke="#263238" stroke-linecap="round" stroke-linejoin="round"/>
<path d="M196.219 185.075C196.219 185.075 191.931 181.901 191.453 180.448" stroke="#263238" stroke-linecap="round" stroke-linejoin="round"/>
<path d="M194.309 187.373C194.309 187.373 189.742 184.587 189.662 182.965" stroke="#263238" stroke-linecap="round" stroke-linejoin="round"/>
<path d="M195.354 173.065C195.354 173.065 193.901 175.672 191.493 176.219" stroke="#263238" stroke-linecap="round" stroke-linejoin="round"/>
<path d="M194.627 174.08C195.391 174.479 196.111 174.956 196.776 175.503" stroke="#263238" stroke-linecap="round" stroke-linejoin="round"/>
<path d="M361.399 262.207C350.14 257.442 338.527 253.563 326.664 250.605C309.192 246.516 280.894 242.864 280.894 242.864C280.894 242.864 288.675 322.265 286.625 327.041C284.575 331.817 272.277 347.857 272.277 347.857C272.277 347.857 338.833 373.806 350.435 376.015C362.036 378.224 355.987 337.957 355.987 337.957C355.987 337.957 368.245 286.774 361.399 262.207Z" fill="#263238"/>
<path d="M337.509 253.68C337.509 253.68 339.091 256.665 334.932 258.227C324.157 262.207 312.674 258.695 313.898 254.476C314.366 252.864 317.032 254.476 316.883 248.506C316.81 247.586 316.563 246.688 316.157 245.86C315.397 244.245 314.48 242.709 313.42 241.273C312.27 239.674 311.038 238.137 309.729 236.666C309.729 236.666 326.833 225.721 339.519 236.666C339.499 236.616 334.783 239.004 337.509 253.68Z" fill="white" stroke="#263238" stroke-linecap="round" stroke-linejoin="round"/>
<path d="M358.703 395.1C351.967 406.045 317.789 411.229 299.132 410.741C280.476 410.254 226.796 384.871 223.154 379.458C219.781 374.483 211.493 357.996 224.268 348.036C225.352 347.199 226.504 346.454 227.711 345.807C236.457 341.071 294.625 356.006 294.625 356.006C294.625 356.006 298.227 353.728 299.55 353.897C303.61 354.414 306.515 357.698 314.714 360.036C320.455 361.678 336.126 355.369 346.136 360.792C347.247 361.386 348.271 362.129 349.181 363.001C358.534 371.936 365.429 384.125 358.703 395.1Z" fill="#1B68E0"/>
<mask id="mask0_16_884" style="mask-type:luminance" maskUnits="userSpaceOnUse" x="217" y="344" width="145" height="67">
<path d="M358.703 395.1C351.967 406.045 317.789 411.229 299.132 410.741C280.476 410.254 226.796 384.871 223.154 379.458C219.781 374.483 211.493 357.996 224.268 348.036C225.352 347.199 226.504 346.454 227.711 345.807C236.457 341.071 294.625 356.006 294.625 356.006C294.625 356.006 298.227 353.728 299.55 353.897C303.61 354.414 306.515 357.698 314.714 360.036C320.455 361.678 336.126 355.369 346.136 360.792C347.247 361.386 348.271 362.129 349.181 363.001C358.534 371.936 365.429 384.125 358.703 395.1Z" fill="white"/>
</mask>
<g mask="url(#mask0_16_884)">
<path opacity="0.3" d="M346.136 360.792C335.878 360.106 326.734 362.255 320.346 366.026C312.774 370.503 277.013 387.727 277.013 387.727C277.093 385.876 279.083 382.145 279.083 382.145C275.72 379.16 266.924 376.822 266.924 376.822C260.108 371.001 233.094 353.638 224.268 348.036C225.352 347.199 226.504 346.454 227.711 345.807C236.457 341.071 294.625 356.006 294.625 356.006C294.625 356.006 298.227 353.728 299.55 353.897C303.61 354.414 306.515 357.698 314.714 360.036C320.485 361.678 336.126 355.369 346.136 360.792Z" fill="black" fill-opacity="0.7"/>
</g>
<path d="M358.703 395.1C351.967 406.045 317.789 411.229 299.132 410.741C280.476 410.254 226.796 384.871 223.154 379.458C219.781 374.483 211.493 357.996 224.268 348.036C225.352 347.199 226.504 346.454 227.711 345.807C236.457 341.071 294.625 356.006 294.625 356.006C294.625 356.006 298.227 353.728 299.55 353.897C303.61 354.414 306.515 357.698 314.714 360.036C320.455 361.678 336.126 355.369 346.136 360.792C347.247 361.386 348.271 362.129 349.181 363.001C358.534 371.936 365.429 384.125 358.703 395.1Z" stroke="#263238" stroke-linecap="round" stroke-linejoin="round"/>
<path d="M348.216 405.01L349.071 408.761C349.071 408.761 346.783 415.248 336.723 416.313C326.664 417.378 320.704 419.596 315.828 419.885C313.28 420.086 310.718 420.046 308.177 419.766L307.182 418.293L348.216 405.01Z" fill="white" stroke="#263238" stroke-linecap="round" stroke-linejoin="round"/>
<path d="M289.799 404.612L307.232 418.293C315.634 417.575 323.982 416.325 332.226 414.552C340.484 412.641 347.698 409.905 348.086 406.144C348.693 400.433 342.584 398.871 335.33 399.09C333.977 399.09 332.584 399.229 331.181 399.368C319.57 400.612 304.804 394.204 304.804 394.204L289.799 404.612Z" fill="#263238"/>
<mask id="mask1_16_884" style="mask-type:luminance" maskUnits="userSpaceOnUse" x="289" y="394" width="60" height="25">
<path d="M289.799 404.612L307.232 418.293C315.634 417.575 323.982 416.325 332.226 414.552C340.484 412.641 347.698 409.905 348.086 406.144C348.693 400.433 342.584 398.871 335.33 399.09C333.977 399.09 332.584 399.229 331.181 399.368C319.57 400.612 304.804 394.204 304.804 394.204L289.799 404.612Z" fill="white"/>
</mask>
<g mask="url(#mask1_16_884)">
<path opacity="0.3" d="M348.096 406.005C344.712 407.264 341.465 408.864 338.405 410.781C338.405 410.781 322.216 419.109 297.331 410.532L289.799 404.612L304.804 394.194C304.804 394.194 319.56 400.612 331.181 399.358C332.584 399.209 333.977 399.11 335.33 399.08C342.534 398.861 348.594 400.393 348.096 406.005Z" fill="black" fill-opacity="0.7"/>
</g>
<path d="M289.799 404.612L307.232 418.293C315.634 417.575 323.982 416.325 332.226 414.552C340.484 412.641 347.698 409.905 348.086 406.144C348.693 400.433 342.584 398.871 335.33 399.09C333.977 399.09 332.584 399.229 331.181 399.368C319.57 400.612 304.804 394.204 304.804 394.204L289.799 404.612Z" stroke="#263238" stroke-linecap="round" stroke-linejoin="round"/>
<path d="M306.047 410.005C302.903 410.512 306.356 416.97 310.615 414.98C314.873 412.99 309.192 409.487 306.047 410.005Z" fill="white"/>
<mask id="mask2_16_884" style="mask-type:luminance" maskUnits="userSpaceOnUse" x="304" y="409" width="9" height="7">
<path d="M306.047 410.005C302.903 410.512 306.356 416.97 310.615 414.98C314.873 412.99 309.192 409.487 306.047 410.005Z" fill="white"/>
</mask>
<g mask="url(#mask2_16_884)">
<path opacity="0.2" d="M311.948 413.955C309.67 413.677 307.409 413.282 305.172 412.771C304.575 411.507 304.714 410.214 306.048 410.005C308.684 409.567 313.122 412.005 311.948 413.955Z" fill="black" fill-opacity="0.7"/>
</g>
<path d="M306.047 410.005C302.903 410.512 306.356 416.97 310.615 414.98C314.873 412.99 309.192 409.487 306.047 410.005Z" stroke="#263238" stroke-linecap="round" stroke-linejoin="round"/>
<path d="M332.226 414.542C340.484 412.632 347.698 409.895 348.086 406.134C348.693 400.423 342.584 398.861 335.33 399.08C335.012 399.388 327.977 406.184 332.226 414.542Z" fill="white"/>
<mask id="mask3_16_884" style="mask-type:luminance" maskUnits="userSpaceOnUse" x="330" y="399" width="19" height="16">
<path d="M332.226 414.542C340.484 412.632 347.698 409.895 348.086 406.134C348.693 400.423 342.584 398.861 335.33 399.08C335.012 399.388 327.977 406.184 332.226 414.542Z" fill="white"/>
</mask>
<g mask="url(#mask3_16_884)">
<path opacity="0.3" d="M348.096 406.005C344.712 407.264 341.465 408.864 338.405 410.781C336.224 411.789 333.938 412.553 331.589 413.059C328.803 405.398 335.032 399.368 335.33 399.08C342.534 398.861 348.594 400.393 348.096 406.005Z" fill="black" fill-opacity="0.7"/>
</g>
<path d="M332.226 414.542C340.484 412.632 347.698 409.895 348.086 406.134C348.693 400.423 342.584 398.861 335.33 399.08C335.012 399.388 327.977 406.184 332.226 414.542Z" stroke="#263238" stroke-linecap="round" stroke-linejoin="round"/>
<path d="M326.336 407.448H326.385C326.499 407.453 326.612 407.436 326.718 407.397C326.825 407.358 326.922 407.299 327.006 407.222C327.089 407.145 327.156 407.053 327.203 406.95C327.251 406.847 327.277 406.735 327.281 406.622C327.563 404.177 328.607 401.883 330.266 400.065C330.346 399.985 330.409 399.891 330.453 399.787C330.496 399.682 330.518 399.571 330.518 399.458C330.518 399.345 330.496 399.233 330.453 399.129C330.409 399.025 330.346 398.931 330.266 398.851C330.104 398.692 329.886 398.603 329.659 398.603C329.432 398.603 329.214 398.692 329.052 398.851C327.101 400.967 325.889 403.659 325.599 406.522C325.579 406.742 325.645 406.96 325.782 407.133C325.919 407.305 326.117 407.418 326.336 407.448Z" fill="white" stroke="#263238" stroke-linecap="round" stroke-linejoin="round"/>
<path d="M322.883 407.677H322.953C323.066 407.679 323.178 407.659 323.284 407.618C323.389 407.577 323.486 407.515 323.567 407.437C323.648 407.358 323.713 407.264 323.758 407.16C323.803 407.056 323.827 406.944 323.828 406.831C324.026 404.346 324.946 401.973 326.475 400.005C326.559 399.919 326.624 399.817 326.666 399.705C326.708 399.592 326.726 399.473 326.719 399.353C326.713 399.233 326.681 399.116 326.627 399.009C326.573 398.902 326.497 398.808 326.404 398.732C326.312 398.656 326.204 398.6 326.089 398.567C325.973 398.535 325.852 398.527 325.734 398.544C325.615 398.561 325.501 398.602 325.399 398.665C325.297 398.728 325.209 398.812 325.142 398.911C323.366 401.175 322.309 403.92 322.107 406.791C322.098 407.01 322.174 407.224 322.318 407.389C322.463 407.553 322.665 407.656 322.883 407.677Z" fill="white" stroke="#263238" stroke-linecap="round" stroke-linejoin="round"/>
<path d="M318.754 407.219C318.866 407.23 318.98 407.218 319.088 407.185C319.196 407.152 319.296 407.098 319.383 407.026C319.47 406.953 319.542 406.865 319.594 406.765C319.647 406.665 319.679 406.555 319.689 406.443C319.958 403.458 322.525 399.547 322.555 399.478C322.681 399.286 322.726 399.052 322.681 398.827C322.637 398.602 322.505 398.403 322.316 398.274C322.125 398.148 321.893 398.103 321.67 398.148C321.446 398.192 321.249 398.323 321.122 398.513C321.002 398.682 318.276 402.781 317.968 406.244C317.952 406.36 317.961 406.478 317.993 406.59C318.024 406.703 318.079 406.808 318.152 406.899C318.225 406.991 318.317 407.066 318.42 407.121C318.523 407.176 318.637 407.209 318.754 407.219Z" fill="white" stroke="#263238" stroke-linecap="round" stroke-linejoin="round"/>
<path d="M314.853 406.811C314.929 406.821 315.006 406.821 315.082 406.811C315.194 406.793 315.302 406.753 315.398 406.693C315.495 406.633 315.578 406.554 315.644 406.462C315.71 406.369 315.756 406.264 315.781 406.153C315.806 406.042 315.808 405.928 315.789 405.816C315.182 402.154 318.585 399.02 318.614 398.99C318.727 398.831 318.783 398.639 318.772 398.444C318.762 398.249 318.686 398.064 318.557 397.918C318.428 397.771 318.254 397.673 318.062 397.638C317.87 397.604 317.672 397.635 317.5 397.727C317.331 397.876 313.361 401.518 314.127 406.124C314.163 406.299 314.253 406.459 314.383 406.581C314.512 406.704 314.677 406.784 314.853 406.811Z" fill="white" stroke="#263238" stroke-linecap="round" stroke-linejoin="round"/>
<path d="M310.615 405.786C310.707 405.801 310.801 405.801 310.893 405.786C311.107 405.734 311.294 405.602 311.414 405.417C311.534 405.232 311.579 405.008 311.54 404.791C310.794 401.528 314.008 397.826 314.047 397.826C314.196 397.654 314.272 397.43 314.257 397.203C314.242 396.976 314.138 396.763 313.968 396.612C313.884 396.537 313.786 396.478 313.679 396.441C313.572 396.403 313.459 396.388 313.346 396.394C313.233 396.4 313.123 396.429 313.021 396.479C312.92 396.528 312.829 396.597 312.754 396.682C312.595 396.861 308.913 401.07 309.858 405.209C309.913 405.369 310.014 405.51 310.149 405.612C310.284 405.715 310.446 405.776 310.615 405.786Z" fill="white" stroke="#263238" stroke-linecap="round" stroke-linejoin="round"/>
<path d="M220.985 399.398L219.741 403.04C219.741 403.04 221.333 409.736 231.223 411.845C241.114 413.955 246.805 416.82 251.581 417.597C254.095 418.059 256.647 418.286 259.203 418.273L260.347 416.91L220.985 399.398Z" fill="white" stroke="#263238" stroke-linecap="round" stroke-linejoin="round"/>
<path d="M279.083 405.139L260.317 416.91C252.036 415.315 243.864 413.198 235.85 410.572C227.84 407.806 220.925 404.323 220.925 400.542C220.925 394.791 227.164 393.886 234.358 394.861C235.701 395.04 237.074 395.289 238.457 395.577C249.87 398.035 265.223 393.209 265.223 393.209L279.083 405.139Z" fill="#263238"/>
<mask id="mask4_16_884" style="mask-type:luminance" maskUnits="userSpaceOnUse" x="220" y="393" width="60" height="24">
<path d="M279.083 405.139L260.317 416.91C252.036 415.315 243.864 413.198 235.85 410.572C227.84 407.806 220.925 404.323 220.925 400.542C220.925 394.791 227.164 393.886 234.358 394.861C235.701 395.04 237.074 395.289 238.457 395.577C249.87 398.035 265.223 393.209 265.223 393.209L279.083 405.139Z" fill="white"/>
</mask>
<g mask="url(#mask4_16_884)">
<path opacity="0.3" d="M279.083 405.139L268.048 412.104C259.101 409.325 251.254 403.8 245.621 396.313C252.273 396.167 258.875 395.133 265.252 393.239L279.083 405.139Z" fill="black" fill-opacity="0.7"/>
</g>
<path d="M279.083 405.139L260.317 416.91C252.036 415.315 243.864 413.198 235.85 410.572C227.84 407.806 220.925 404.323 220.925 400.542C220.925 394.791 227.164 393.886 234.358 394.861C235.701 395.04 237.074 395.289 238.457 395.577C249.87 398.035 265.223 393.209 265.223 393.209L279.083 405.139Z" stroke="#263238" stroke-linecap="round" stroke-linejoin="round"/>
<path d="M235.85 410.562C227.84 407.796 220.925 404.314 220.925 400.533C220.925 394.782 227.164 393.876 234.358 394.851C234.676 395.189 240.954 402.702 235.85 410.562Z" fill="white" stroke="#263238" stroke-linecap="round" stroke-linejoin="round"/>
<path d="M242.457 404.124H242.407C242.178 404.109 241.965 404.004 241.812 403.833C241.66 403.662 241.58 403.438 241.591 403.209C241.575 400.753 240.785 398.364 239.333 396.383C239.248 396.296 239.183 396.192 239.141 396.079C239.099 395.965 239.082 395.843 239.09 395.722C239.098 395.601 239.131 395.483 239.188 395.376C239.244 395.269 239.323 395.174 239.418 395.099C239.513 395.024 239.623 394.97 239.741 394.94C239.859 394.911 239.981 394.906 240.101 394.927C240.22 394.947 240.334 394.993 240.435 395.06C240.536 395.128 240.621 395.216 240.686 395.319C242.403 397.616 243.325 400.41 243.313 403.279C243.31 403.504 243.219 403.719 243.059 403.877C242.898 404.036 242.682 404.124 242.457 404.124Z" fill="white" stroke="#263238" stroke-linecap="round" stroke-linejoin="round"/>
<path d="M245.86 404.692H245.78C245.552 404.671 245.341 404.562 245.194 404.386C245.047 404.211 244.975 403.984 244.994 403.756C245.065 401.269 244.404 398.816 243.094 396.702C243.028 396.608 242.982 396.502 242.958 396.39C242.934 396.278 242.931 396.162 242.952 396.049C242.972 395.937 243.014 395.829 243.076 395.733C243.138 395.636 243.219 395.553 243.313 395.488C243.407 395.423 243.513 395.376 243.625 395.352C243.737 395.328 243.852 395.326 243.965 395.346C244.078 395.366 244.185 395.409 244.282 395.47C244.378 395.532 244.461 395.613 244.527 395.707C246.064 398.143 246.827 400.987 246.716 403.866C246.705 404.087 246.611 404.295 246.452 404.449C246.293 404.602 246.081 404.689 245.86 404.692Z" fill="white" stroke="#263238" stroke-linecap="round" stroke-linejoin="round"/>
<path d="M250.019 404.691C249.79 404.686 249.573 404.592 249.413 404.428C249.253 404.264 249.163 404.045 249.163 403.816C249.223 400.781 247.074 396.672 247.044 396.632C246.939 396.427 246.918 396.189 246.987 395.969C247.056 395.749 247.209 395.566 247.412 395.458C247.615 395.353 247.852 395.333 248.07 395.402C248.288 395.471 248.47 395.623 248.576 395.826C248.676 396.005 250.954 400.363 250.895 403.846C250.889 404.073 250.794 404.29 250.631 404.448C250.467 404.607 250.247 404.694 250.019 404.691Z" fill="white" stroke="#263238" stroke-linecap="round" stroke-linejoin="round"/>
<path d="M253.939 404.692H253.71C253.49 404.629 253.304 404.482 253.192 404.282C253.08 404.083 253.052 403.847 253.113 403.627C254.108 400.055 251.054 396.572 251.024 396.543C250.938 396.46 250.869 396.361 250.823 396.251C250.777 396.141 250.754 396.023 250.756 395.903C250.757 395.784 250.784 395.666 250.833 395.558C250.882 395.449 250.954 395.352 251.042 395.272C251.131 395.193 251.235 395.132 251.349 395.094C251.462 395.057 251.581 395.043 251.7 395.054C251.819 395.065 251.934 395.1 252.039 395.158C252.143 395.215 252.235 395.294 252.307 395.388C252.457 395.557 256.029 399.597 254.775 404.095C254.716 404.269 254.604 404.421 254.454 404.529C254.304 404.636 254.124 404.693 253.939 404.692Z" fill="white" stroke="#263238" stroke-linecap="round" stroke-linejoin="round"/>
<path d="M258.268 404.125C258.172 404.128 258.077 404.111 257.989 404.075C257.881 404.04 257.78 403.984 257.694 403.91C257.608 403.835 257.537 403.744 257.487 403.642C257.437 403.54 257.408 403.428 257.402 403.315C257.396 403.201 257.413 403.087 257.452 402.98C258.536 399.816 255.72 395.806 255.7 395.767C255.619 395.676 255.558 395.569 255.52 395.453C255.483 395.336 255.471 395.214 255.484 395.092C255.498 394.971 255.537 394.854 255.599 394.749C255.661 394.644 255.744 394.553 255.844 394.482C255.943 394.412 256.057 394.363 256.176 394.339C256.296 394.316 256.42 394.317 256.538 394.345C256.657 394.372 256.769 394.424 256.867 394.498C256.964 394.571 257.045 394.665 257.103 394.772C257.243 394.961 260.457 399.538 259.093 403.557C259.03 403.725 258.917 403.869 258.77 403.971C258.622 404.072 258.447 404.126 258.268 404.125Z" fill="white" stroke="#263238" stroke-linecap="round" stroke-linejoin="round"/>
<path d="M262.357 408.791C265.432 409.637 261.362 415.656 257.292 413.268C253.223 410.88 259.292 407.955 262.357 408.791Z" fill="white" stroke="#263238" stroke-linecap="round" stroke-linejoin="round"/>
<path d="M226.875 376.832C231.482 383.289 245.143 390.423 258.715 396.304C261.143 400.324 264.006 404.065 267.252 407.458C275.63 416.074 279.043 411.249 279.043 411.249C279.043 411.249 284.337 410.652 292.147 409.587C292.472 410.345 293.039 410.973 293.759 411.375C294.479 411.776 295.312 411.928 296.127 411.806C297.122 411.647 299.112 410.194 301.311 408.274C321.042 405.289 347.818 400.314 355.041 394.523" fill="#1B68E0"/>
<path d="M226.875 376.832C231.482 383.289 245.143 390.423 258.715 396.304C261.143 400.324 264.006 404.065 267.252 407.458C275.63 416.074 279.043 411.249 279.043 411.249C279.043 411.249 284.337 410.652 292.147 409.587C292.472 410.345 293.039 410.973 293.759 411.375C294.479 411.776 295.312 411.928 296.127 411.806C297.122 411.647 299.112 410.194 301.311 408.274C321.042 405.289 347.818 400.314 355.041 394.523" stroke="#263238" stroke-linecap="round" stroke-linejoin="round"/>
<path d="M347.35 364.533C343.937 360.782 340.524 360.613 333.36 361.121C333.36 361.121 314.664 367.091 301.62 374.941C288.575 382.792 269.551 391.12 269.551 391.12C269.551 391.12 263.75 389.438 259.71 391.12C259.71 391.12 256.875 391.339 258.775 396.294" stroke="#263238" stroke-linecap="round" stroke-linejoin="round"/>
<path d="M356.026 386.951C356.026 386.951 356.126 392.732 347.927 396.732" stroke="#263238" stroke-linecap="round" stroke-linejoin="round"/>
<path d="M265.601 362.832C265.601 362.832 278.536 372.185 281.133 378.354C283.675 379.426 286.13 380.693 288.476 382.145" stroke="#263238" stroke-linecap="round" stroke-linejoin="round"/>
<path d="M282.068 370.603C283.017 373.291 283.175 376.195 282.526 378.971" stroke="#263238" stroke-linecap="round" stroke-linejoin="round"/>
<path d="M279.083 364.533C279.788 365.558 280.407 366.64 280.934 367.767" stroke="#263238" stroke-linecap="round" stroke-linejoin="round"/>
<path d="M297.51 363.678C297.51 363.678 301.839 369.469 302.913 374.165" stroke="#263238" stroke-linecap="round" stroke-linejoin="round"/>
<path d="M321.619 398.662C323.229 398.567 324.831 398.368 326.415 398.065" stroke="#263238" stroke-linecap="round" stroke-linejoin="round"/>
<path d="M281.013 394.513C293.278 396.942 305.72 398.37 318.216 398.781" stroke="#263238" stroke-linecap="round" stroke-linejoin="round"/>
<path d="M368.563 306.774C368.563 306.774 366.225 347.569 363.469 349.907C360.713 352.245 356.365 352.971 348.136 353.658C339.907 354.345 303.51 356.573 303.51 356.573L299.59 344.882C299.59 344.882 318.943 342.892 327.53 339.758C334.004 337.545 340.627 335.796 347.35 334.524C347.35 334.524 345.718 324.266 345.718 319.848V299.072" fill="white"/>
<path d="M368.563 306.774C368.563 306.774 366.225 347.569 363.469 349.907C360.713 352.245 356.365 352.971 348.136 353.658C339.907 354.345 303.51 356.573 303.51 356.573L299.59 344.882C299.59 344.882 318.943 342.892 327.53 339.758C334.004 337.545 340.627 335.796 347.35 334.524C347.35 334.524 345.718 324.266 345.718 319.848V299.072" stroke="#263238" stroke-linecap="round" stroke-linejoin="round"/>
<path d="M361.399 262.208C370.265 267.67 372.882 280.297 369.817 307.251C369.817 307.251 372.434 310.435 368.563 312.027C368.563 312.027 354.066 306.604 347.33 310.346C340.594 314.087 342.355 305.182 342.355 305.182C342.355 305.182 339.579 280.386 345.718 275.899" fill="#263238"/>
<path d="M344.902 272.107C344.902 272.107 336.375 280.973 343.907 303.38C343.432 305.209 343.099 307.072 342.912 308.952C342.912 310.455 344.972 311.231 344.972 311.231" stroke="white" stroke-linecap="round" stroke-linejoin="round"/>
<path d="M334.932 287.122C334.932 287.122 335.549 298.067 342.335 302.813" stroke="white" stroke-linecap="round" stroke-linejoin="round"/>
<path d="M337.121 261.71C337.121 261.71 323.898 266.774 313.381 261.163C307.142 257.839 309.709 252.496 309.709 252.496" stroke="white" stroke-linecap="round" stroke-linejoin="round"/>
<path d="M242.029 364.553H314.007C315.633 364.554 317.252 364.343 318.823 363.926L333.022 360.205C333.218 360.154 333.392 360.04 333.517 359.88C333.641 359.719 333.708 359.522 333.709 359.319C333.709 359.074 333.611 358.839 333.438 358.665C333.264 358.492 333.029 358.394 332.783 358.394H239.054C238.81 358.397 238.578 358.495 238.406 358.669C238.235 358.842 238.139 359.076 238.139 359.319V360.663C238.139 361.694 238.549 362.684 239.278 363.414C240.008 364.143 240.997 364.553 242.029 364.553Z" fill="#757575" stroke="#263238" stroke-linecap="round" stroke-linejoin="round"/>
<path d="M234.915 360.971H307.092C307.375 360.984 307.656 360.927 307.911 360.804C308.167 360.682 308.387 360.498 308.554 360.269C308.72 360.04 308.828 359.774 308.866 359.493C308.905 359.213 308.873 358.928 308.774 358.663L295.391 306.594C295.212 305.955 294.837 305.388 294.32 304.973C293.802 304.557 293.168 304.313 292.506 304.276H220.308C220.025 304.265 219.744 304.324 219.489 304.447C219.234 304.571 219.014 304.756 218.847 304.985C218.681 305.214 218.574 305.481 218.535 305.762C218.497 306.043 218.528 306.328 218.627 306.594L232.019 358.663C232.198 359.303 232.574 359.87 233.094 360.285C233.614 360.699 234.251 360.939 234.915 360.971Z" fill="#999999" stroke="#263238" stroke-linecap="round" stroke-linejoin="round"/>
<path d="M222.855 306.126H221.492" stroke="#263238" stroke-linecap="round" stroke-linejoin="round"/>
<path d="M233.432 306.126H226.388" stroke="#263238" stroke-linecap="round" stroke-linejoin="round"/>
<path d="M305.341 354.394L293.52 308.445C293.343 307.807 292.97 307.24 292.455 306.824C291.939 306.409 291.306 306.165 290.645 306.126H235.024" stroke="#263238" stroke-linecap="round" stroke-linejoin="round"/>
<path d="M306.366 358.394L306.067 357.25" stroke="#263238" stroke-linecap="round" stroke-linejoin="round"/>
<path d="M256.616 333.937C256.665 334.358 256.751 334.775 256.875 335.181C257.79 338.315 260.725 340.225 263.422 339.429C266.118 338.633 267.561 335.449 266.645 332.315C265.73 329.181 262.775 327.27 260.078 328.066C259.764 328.163 259.46 328.293 259.173 328.454C259.321 329.518 259.159 330.601 258.705 331.574C258.251 332.547 257.526 333.367 256.616 333.937Z" fill="white" stroke="#263238" stroke-linecap="round" stroke-linejoin="round"/>
<path d="M288.476 236.357C282.227 235.681 278.824 229.74 275.063 228.815C272.965 228.313 270.909 227.648 268.914 226.825C268.914 226.825 267.621 222.308 265.68 223.84C263.74 225.372 261.193 259.163 263.69 258.098C266.188 257.033 266.198 261.023 266.198 261.023L289.391 281.461L308.834 247.034C308.834 247.034 294.724 237.044 288.476 236.357Z" fill="#263238"/>
<path d="M99.4753 116.032V115.534H99.9728" stroke="#263238" stroke-linecap="round" stroke-linejoin="round"/>
<path d="M102.898 115.534H187.075" stroke="#263238" stroke-linecap="round" stroke-linejoin="round" stroke-dasharray="0.98 2.93"/>
<path d="M188.528 115.534H189.025V116.032" stroke="#263238" stroke-linecap="round" stroke-linejoin="round"/>
<path d="M189.035 119.017V173.244" stroke="#263238" stroke-linecap="round" stroke-linejoin="round" stroke-dasharray="1 3"/>
<path d="M189.025 174.737V175.234H188.528" stroke="#263238" stroke-linecap="round" stroke-linejoin="round"/>
<path d="M185.613 175.234H101.435" stroke="#263238" stroke-linecap="round" stroke-linejoin="round" stroke-dasharray="0.98 2.93"/>
<path d="M99.9728 175.234H99.4753V174.737" stroke="#263238" stroke-linecap="round" stroke-linejoin="round"/>
<path d="M99.4852 171.752V117.524" stroke="#263238" stroke-linecap="round" stroke-linejoin="round" stroke-dasharray="1 3"/>
<path d="M144.26 117.007C145.074 117.007 145.733 116.347 145.733 115.534C145.733 114.721 145.074 114.062 144.26 114.062C143.447 114.062 142.788 114.721 142.788 115.534C142.788 116.347 143.447 117.007 144.26 117.007Z" fill="#1B68E0" stroke="#263238" stroke-linecap="round" stroke-linejoin="round"/>
<path d="M99.4852 146.857C100.298 146.857 100.958 146.198 100.958 145.384C100.958 144.571 100.298 143.912 99.4852 143.912C98.6719 143.912 98.0126 144.571 98.0126 145.384C98.0126 146.198 98.6719 146.857 99.4852 146.857Z" fill="#1B68E0" stroke="#263238" stroke-linecap="round" stroke-linejoin="round"/>
<path d="M144.26 176.707C145.074 176.707 145.733 176.048 145.733 175.234C145.733 174.421 145.074 173.762 144.26 173.762C143.447 173.762 142.788 174.421 142.788 175.234C142.788 176.048 143.447 176.707 144.26 176.707Z" fill="#1B68E0" stroke="#263238" stroke-linecap="round" stroke-linejoin="round"/>
<path d="M189.035 146.857C189.849 146.857 190.508 146.198 190.508 145.384C190.508 144.571 189.849 143.912 189.035 143.912C188.222 143.912 187.563 144.571 187.563 145.384C187.563 146.198 188.222 146.857 189.035 146.857Z" fill="#1B68E0" stroke="#263238" stroke-linecap="round" stroke-linejoin="round"/>
<path d="M190.747 173.523H187.314V176.956H190.747V173.523Z" fill="#1B68E0" stroke="#263238" stroke-linecap="round" stroke-linejoin="round"/>
<path d="M190.747 113.823H187.314V117.256H190.747V113.823Z" fill="#1B68E0" stroke="#263238" stroke-linecap="round" stroke-linejoin="round"/>
<path d="M101.197 173.523H97.7639V176.956H101.197V173.523Z" fill="#1B68E0" stroke="#263238" stroke-linecap="round" stroke-linejoin="round"/>
<path d="M101.197 113.823H97.7639V117.256H101.197V113.823Z" fill="#1B68E0" stroke="#263238" stroke-linecap="round" stroke-linejoin="round"/>
<path d="M183.364 120.817H105.425V170.339H183.364V120.817Z" fill="white" stroke="#263238" stroke-linecap="round" stroke-linejoin="round"/>
<path d="M183.364 155.713L174.697 164.379L151.255 140.937L141.395 150.797L125.674 135.076L105.425 155.314V170.339H183.364V155.713Z" fill="#1B68E0" stroke="#263238" stroke-linecap="round" stroke-linejoin="round"/>
<path d="M167.215 140.379C170.254 140.379 172.717 137.916 172.717 134.877C172.717 131.838 170.254 129.375 167.215 129.375C164.176 129.375 161.713 131.838 161.713 134.877C161.713 137.916 164.176 140.379 167.215 140.379Z" fill="#1B68E0" stroke="#263238" stroke-linecap="round" stroke-linejoin="round"/>
<path d="M292.625 245.491C292.625 245.491 286.655 256.605 285.948 273.61" stroke="white" stroke-linecap="round" stroke-linejoin="round"/>
<path d="M275.073 253.183C275.073 253.183 276.854 262.635 282.038 269.481" stroke="white" stroke-linecap="round" stroke-linejoin="round"/>
<path d="M299.59 292.187C299.59 292.187 308.545 321.599 327.997 330.255" stroke="white" stroke-linecap="round" stroke-linejoin="round"/>
<path d="M323.152 238.944C323.152 238.944 322.306 245.362 316.137 245.81C315.377 244.195 314.46 242.659 313.401 241.223C316.604 240.275 319.86 239.514 323.152 238.944Z" fill="#263238"/>
<path d="M336.296 239.392C336.296 239.392 346.614 240.656 350.932 226.805C355.25 212.955 351.857 202.517 334.783 197.492C325.311 194.706 315.878 196.945 312.425 204.119C309.5 210.258 310.883 215.363 310.217 217.422C309.46 219.731 302.475 221.691 302.475 223.273C302.475 224.576 306.346 226.805 306.346 226.805L305.212 230.248L306.276 230.815C306.276 230.815 304.286 238.566 305.212 241.302C305.868 243.292 323.351 244.128 324.714 239.173" fill="white"/>
<path d="M336.296 239.392C336.296 239.392 346.614 240.656 350.932 226.805C355.25 212.955 351.857 202.517 334.783 197.492C325.311 194.706 315.878 196.945 312.425 204.119C309.5 210.258 310.883 215.363 310.217 217.422C309.46 219.731 302.475 221.691 302.475 223.273C302.475 224.576 306.346 226.805 306.346 226.805L305.212 230.248L306.276 230.815C306.276 230.815 304.286 238.566 305.212 241.302C305.868 243.292 323.351 244.128 324.714 239.173" stroke="#263238" stroke-linecap="round" stroke-linejoin="round"/>
<path d="M312.525 209.144C312.525 209.144 315.938 210 316.873 211.791" stroke="#263238" stroke-linecap="round" stroke-linejoin="round"/>
<path d="M313.122 217.014C312.973 218.009 313.202 218.875 313.639 218.935C314.077 218.994 314.535 218.238 314.684 217.233C314.833 216.228 314.595 215.373 314.167 215.313C313.739 215.253 313.271 216.009 313.122 217.014Z" fill="#263238"/>
<path d="M306.276 230.815C306.276 230.815 311.828 232.944 313.898 231.661" stroke="#263238" stroke-linecap="round" stroke-linejoin="round"/>
<path d="M308.227 216.218C307.819 218.447 308.316 220.397 309.341 220.586C310.366 220.775 311.54 219.134 311.948 216.915C312.356 214.696 311.868 212.726 310.833 212.537C309.799 212.348 308.644 213.999 308.227 216.218Z" stroke="#263238" stroke-linecap="round" stroke-linejoin="round"/>
<path d="M351.39 204.885C350.559 200.853 348.243 197.281 344.902 194.876C341.178 192.261 336.914 190.516 332.425 189.771C332.425 189.771 335.718 191.214 336.972 193.115C336.972 193.115 328.445 186.707 318.316 190.916C308.187 195.124 309.45 206.059 309.45 206.059L310.923 203.194C310.923 203.194 310.754 206.607 312.545 207.86C313.082 206.189 313.813 204.586 314.724 203.084C314.724 203.084 317.41 211.154 324.803 213.89C324.301 212.618 324.259 211.21 324.684 209.91C324.684 209.91 328.783 218.776 327.589 223.104L328.893 225.372C328.893 225.372 333.599 220.606 337.43 224.576C339.629 226.865 333.221 235.521 332.306 235.521L336.176 241.203C336.176 241.203 345.848 242.586 351.42 232.109C356.992 221.631 355.628 217.184 355.628 217.184C355.628 217.184 357.449 219.731 357.618 221.164C357.638 221.144 359.29 209.89 351.39 204.885Z" fill="#263238"/>
<path d="M328.634 226.378C328.634 226.378 331.619 216.348 337.967 219.88C344.315 223.412 339.788 228.766 337.509 230.825C335.231 232.885 333.529 236.626 332.047 236.626C330.564 236.626 330.236 234.805 330.236 234.805" fill="white"/>
<path d="M328.634 226.378C328.634 226.378 331.619 216.348 337.967 219.88C344.315 223.412 339.788 228.766 337.509 230.825C335.231 232.885 333.529 236.626 332.047 236.626C330.564 236.626 330.236 234.805 330.236 234.805" stroke="#263238" stroke-linecap="round" stroke-linejoin="round"/>
<path d="M311.948 216.915L329.659 220.587" stroke="#263238" stroke-linecap="round" stroke-linejoin="round"/>
</g>
<defs>
<clipPath id="clip0_16_884">
<rect width="416.786" height="450" fill="white" transform="translate(0.214294)"/>
</clipPath>
</defs>
</svg>
