<svg width="64" height="64" viewBox="0 0 64 64" fill="none" xmlns="http://www.w3.org/2000/svg">
<rect width="64" height="64" rx="16" fill="#D1E1F9"/>
<path d="M32 45.3332C30.1778 45.3332 28.4556 44.9832 26.8334 44.2832C25.2111 43.5832 23.7945 42.6276 22.5834 41.4165C21.3722 40.2054 20.4167 38.7887 19.7167 37.1665C19.0167 35.5443 18.6667 33.8221 18.6667 31.9998C18.6667 30.1554 19.0167 28.4276 19.7167 26.8165C20.4167 25.2054 21.3722 23.7943 22.5834 22.5832C23.7945 21.3721 25.2111 20.4165 26.8334 19.7165C28.4556 19.0165 30.1778 18.6665 32 18.6665C33.8445 18.6665 35.5722 19.0165 37.1834 19.7165C38.7945 20.4165 40.2056 21.3721 41.4167 22.5832C42.6278 23.7943 43.5834 25.2054 44.2834 26.8165C44.9834 28.4276 45.3334 30.1554 45.3334 31.9998C45.3334 33.8221 44.9834 35.5443 44.2834 37.1665C43.5834 38.7887 42.6278 40.2054 41.4167 41.4165C40.2056 42.6276 38.7945 43.5832 37.1834 44.2832C35.5722 44.9832 33.8445 45.3332 32 45.3332ZM32 42.5998C32.5778 41.7998 33.0778 40.9665 33.5 40.0998C33.9222 39.2332 34.2667 38.3109 34.5334 37.3332H29.4667C29.7334 38.3109 30.0778 39.2332 30.5 40.0998C30.9222 40.9665 31.4222 41.7998 32 42.5998ZM28.5334 42.0665C28.1334 41.3332 27.7834 40.5721 27.4834 39.7832C27.1834 38.9943 26.9334 38.1776 26.7334 37.3332H22.8C23.4445 38.4443 24.25 39.4109 25.2167 40.2332C26.1834 41.0554 27.2889 41.6665 28.5334 42.0665ZM35.4667 42.0665C36.7111 41.6665 37.8167 41.0554 38.7834 40.2332C39.75 39.4109 40.5556 38.4443 41.2 37.3332H37.2667C37.0667 38.1776 36.8167 38.9943 36.5167 39.7832C36.2167 40.5721 35.8667 41.3332 35.4667 42.0665ZM21.6667 34.6665H26.2C26.1334 34.2221 26.0834 33.7832 26.05 33.3498C26.0167 32.9165 26 32.4665 26 31.9998C26 31.5332 26.0167 31.0832 26.05 30.6498C26.0834 30.2165 26.1334 29.7776 26.2 29.3332H21.6667C21.5556 29.7776 21.4722 30.2165 21.4167 30.6498C21.3611 31.0832 21.3334 31.5332 21.3334 31.9998C21.3334 32.4665 21.3611 32.9165 21.4167 33.3498C21.4722 33.7832 21.5556 34.2221 21.6667 34.6665ZM28.8667 34.6665H35.1334C35.2 34.2221 35.25 33.7832 35.2834 33.3498C35.3167 32.9165 35.3334 32.4665 35.3334 31.9998C35.3334 31.5332 35.3167 31.0832 35.2834 30.6498C35.25 30.2165 35.2 29.7776 35.1334 29.3332H28.8667C28.8 29.7776 28.75 30.2165 28.7167 30.6498C28.6834 31.0832 28.6667 31.5332 28.6667 31.9998C28.6667 32.4665 28.6834 32.9165 28.7167 33.3498C28.75 33.7832 28.8 34.2221 28.8667 34.6665ZM37.8 34.6665H42.3334C42.4445 34.2221 42.5278 33.7832 42.5834 33.3498C42.6389 32.9165 42.6667 32.4665 42.6667 31.9998C42.6667 31.5332 42.6389 31.0832 42.5834 30.6498C42.5278 30.2165 42.4445 29.7776 42.3334 29.3332H37.8C37.8667 29.7776 37.9167 30.2165 37.95 30.6498C37.9834 31.0832 38 31.5332 38 31.9998C38 32.4665 37.9834 32.9165 37.95 33.3498C37.9167 33.7832 37.8667 34.2221 37.8 34.6665ZM37.2667 26.6665H41.2C40.5556 25.5554 39.75 24.5887 38.7834 23.7665C37.8167 22.9443 36.7111 22.3332 35.4667 21.9332C35.8667 22.6665 36.2167 23.4276 36.5167 24.2165C36.8167 25.0054 37.0667 25.8221 37.2667 26.6665ZM29.4667 26.6665H34.5334C34.2667 25.6887 33.9222 24.7665 33.5 23.8998C33.0778 23.0332 32.5778 22.1998 32 21.3998C31.4222 22.1998 30.9222 23.0332 30.5 23.8998C30.0778 24.7665 29.7334 25.6887 29.4667 26.6665ZM22.8 26.6665H26.7334C26.9334 25.8221 27.1834 25.0054 27.4834 24.2165C27.7834 23.4276 28.1334 22.6665 28.5334 21.9332C27.2889 22.3332 26.1834 22.9443 25.2167 23.7665C24.25 24.5887 23.4445 25.5554 22.8 26.6665Z" fill="#1B68E0"/>
</svg>
